<?plantuml 1.2026.2?><svg xmlns="http://www.w3.org/2000/svg" xmlns:xlink="http://www.w3.org/1999/xlink" contentStyleType="text/css" data-diagram-type="SEQUENCE" height="363px" preserveAspectRatio="none" style="width:368px;height:363px;background:#FFFFFF;" version="1.1" viewBox="0 0 368 363" width="368px" zoomAndPan="magnify"><defs/><g><rect fill="none" height="75.9316" style="stroke:#000000;stroke-width:1.5;" width="276.7954" x="10" y="141.4199"/><g class="participant-lifeline" data-entity-uid="part1" data-qualified-name="Client" id="part1-lifeline"><g><title>Client</title><rect fill="#000000" fill-opacity="0.00000" height="291.7949" width="8" x="42.7524" y="36.4883"/><line style="stroke:#181818;stroke-width:0.5;stroke-dasharray:5,5;" x1="46" x2="46" y1="36.4883" y2="328.2832"/></g></g><g class="participant-lifeline" data-entity-uid="part2" data-qualified-name="Server" id="part2-lifeline"><g><title>Server</title><rect fill="#000000" fill-opacity="0.00000" height="291.7949" width="8" x="244.874" y="36.4883"/><line style="stroke:#181818;stroke-width:0.5;stroke-dasharray:5,5;" x1="247.9526" x2="247.9526" y1="36.4883" y2="328.2832"/></g></g><g class="participant participant-head" data-entity-uid="part1" data-qualified-name="Client" id="part1-head"><rect fill="#E2E2F0" height="30.4883" rx="2.5" ry="2.5" style="stroke:#181818;stroke-width:0.5;" width="53.5049" x="20" y="5"/><text fill="#000000" font-family="sans-serif" font-size="14" lengthAdjust="spacing" textLength="39.5049" x="27" y="25.5352">Client</text></g><g class="participant participant-tail" data-entity-uid="part1" data-qualified-name="Client" id="part1-tail"><rect fill="#E2E2F0" height="30.4883" rx="2.5" ry="2.5" style="stroke:#181818;stroke-width:0.5;" width="53.5049" x="20" y="327.2832"/><text fill="#000000" font-family="sans-serif" font-size="14" lengthAdjust="spacing" textLength="39.5049" x="27" y="347.8184">Client</text></g><g class="participant participant-head" data-entity-uid="part2" data-qualified-name="Server" id="part2-head"><rect fill="#E2E2F0" height="30.4883" rx="2.5" ry="2.5" style="stroke:#181818;stroke-width:0.5;" width="55.8428" x="220.9526" y="5"/><text fill="#000000" font-family="sans-serif" font-size="14" lengthAdjust="spacing" textLength="41.8428" x="227.9526" y="25.5352">Server</text></g><g class="participant participant-tail" data-entity-uid="part2" data-qualified-name="Server" id="part2-tail"><rect fill="#E2E2F0" height="30.4883" rx="2.5" ry="2.5" style="stroke:#181818;stroke-width:0.5;" width="55.8428" x="220.9526" y="327.2832"/><text fill="#000000" font-family="sans-serif" font-size="14" lengthAdjust="spacing" textLength="41.8428" x="227.9526" y="347.8184">Server</text></g><g class="message" data-entity-1="part1" data-entity-2="part2" id="msg1"><polygon fill="#181818" points="236.874,63.7988,246.874,67.7988,236.874,71.7988,240.874,67.7988" style="stroke:#181818;stroke-width:1;"/><line style="stroke:#181818;stroke-width:1;" x1="46.7524" x2="242.874" y1="67.7988" y2="67.7988"/><text fill="#000000" font-family="sans-serif" font-size="13" lengthAdjust="spacing" textLength="100.7881" x="53.7524" y="63.0566">SYN (ConnId=X)</text></g><g class="message" data-entity-1="part2" data-entity-2="part1" id="msg2"><polygon fill="#181818" points="57.7524,93.1094,47.7524,97.1094,57.7524,101.1094,53.7524,97.1094" style="stroke:#181818;stroke-width:1;"/><line style="stroke:#181818;stroke-width:1;" x1="51.7524" x2="247.874" y1="97.1094" y2="97.1094"/><text fill="#000000" font-family="sans-serif" font-size="13" lengthAdjust="spacing" textLength="127.2388" x="63.7524" y="92.3672">SYNACK (ConnId=X)</text></g><g class="message" data-entity-1="part1" data-entity-2="part2" id="msg3"><polygon fill="#181818" points="236.874,122.4199,246.874,126.4199,236.874,130.4199,240.874,126.4199" style="stroke:#181818;stroke-width:1;"/><line style="stroke:#181818;stroke-width:1;" x1="46.7524" x2="242.874" y1="126.4199" y2="126.4199"/><text fill="#000000" font-family="sans-serif" font-size="13" lengthAdjust="spacing" textLength="26.4507" x="53.7524" y="121.6777">ACK</text></g><path d="M10,141.4199 L84.4468,141.4199 L84.4468,148.7305 L74.4468,158.7305 L10,158.7305 L10,141.4199" fill="#EEEEEE" style="stroke:#000000;stroke-width:1.5;"/><rect fill="none" height="75.9316" style="stroke:#000000;stroke-width:1.5;" width="276.7954" x="10" y="141.4199"/><text fill="#000000" font-family="sans-serif" font-size="13" font-weight="bold" lengthAdjust="spacing" textLength="29.4468" x="25" y="154.9883">loop</text><text fill="#000000" font-family="sans-serif" font-size="11" font-weight="bold" lengthAdjust="spacing" textLength="110.0483" x="99.4468" y="154.0547">[Pro ka&#382;d&#253; kus dat]</text><g class="message" data-entity-1="part1" data-entity-2="part2" id="msg4"><polygon fill="#181818" points="236.874,176.041,246.874,180.041,236.874,184.041,240.874,180.041" style="stroke:#181818;stroke-width:1;"/><line style="stroke:#181818;stroke-width:1;" x1="46.7524" x2="242.874" y1="180.041" y2="180.041"/><text fill="#000000" font-family="sans-serif" font-size="13" lengthAdjust="spacing" textLength="178.1216" x="53.7524" y="175.2988">DATA (SeqNum=N, payload)</text></g><g class="message" data-entity-1="part2" data-entity-2="part1" id="msg5"><polygon fill="#181818" points="57.7524,205.3516,47.7524,209.3516,57.7524,213.3516,53.7524,209.3516" style="stroke:#181818;stroke-width:1;"/><line style="stroke:#181818;stroke-width:1;" x1="51.7524" x2="247.874" y1="209.3516" y2="209.3516"/><text fill="#000000" font-family="sans-serif" font-size="13" lengthAdjust="spacing" textLength="141.394" x="63.7524" y="204.6094">ACK (AckNum=N+len)</text></g><g class="message" data-entity-1="part1" data-entity-2="part2" id="msg6"><polygon fill="#181818" points="236.874,241.6621,246.874,245.6621,236.874,249.6621,240.874,245.6621" style="stroke:#181818;stroke-width:1;"/><line style="stroke:#181818;stroke-width:1;" x1="46.7524" x2="242.874" y1="245.6621" y2="245.6621"/><text fill="#000000" font-family="sans-serif" font-size="13" lengthAdjust="spacing" textLength="122.9985" x="53.7524" y="240.9199">FIN (SeqNum=final)</text></g><g class="message" data-entity-1="part2" data-entity-2="part1" id="msg7"><polygon fill="#181818" points="57.7524,270.9727,47.7524,274.9727,57.7524,278.9727,53.7524,274.9727" style="stroke:#181818;stroke-width:1;"/><line style="stroke:#181818;stroke-width:1;" x1="51.7524" x2="247.874" y1="274.9727" y2="274.9727"/><text fill="#000000" font-family="sans-serif" font-size="13" lengthAdjust="spacing" textLength="46.7695" x="63.7524" y="270.2305">FINACK</text></g><path d="M253,287.9727 L253,312.9727 L361,312.9727 L361,297.9727 L351,287.9727 L253,287.9727" fill="#FEFFDD" style="stroke:#181818;stroke-width:0.5;"/><path d="M351,287.9727 L351,297.9727 L361,297.9727 L351,287.9727" fill="#FEFFDD" style="stroke:#181818;stroke-width:0.5;"/><text fill="#000000" font-family="sans-serif" font-size="13" lengthAdjust="spacing" textLength="87.7246" x="259" y="305.541">TIME_WAIT 2s</text><?plantuml-src RO-n2i8m68JtFCK_jgYBOw52g0f1B48BwYIXIJKq9Z5D1HzE5_6zBB58X_pZ_TyTTuPQ9ofXg7AGIS6LGsOa5TpUkKNezuBPOb0WWUAOGvHffGXB3p4Qz9uOM4_WR3E60Z4zWP3Ksi3EQcZevyNUJsYw5XXr2FeBc9Qun10L_9PtrpIVWg4FgIcBFHzeuclWgl7uH78L8wvOSDQQvF_aMYWgWzDwoXTNsd6mudnneEiX986IR5UdFIObpDil?></g></svg>