<?plantuml 1.2026.2?><svg xmlns="http://www.w3.org/2000/svg" xmlns:xlink="http://www.w3.org/1999/xlink" contentStyleType="text/css" data-diagram-type="STATE" height="750px" preserveAspectRatio="none" style="width:428px;height:750px;background:#FFFFFF;" version="1.1" viewBox="0 0 428 750" width="428px" zoomAndPan="magnify"><defs/><g><g class="start_entity" data-qualified-name=".start." data-source-line="1" id="ent0002"><ellipse cx="195.05" cy="16" fill="#222222" rx="10" ry="10" style="stroke:#222222;stroke-width:1;"/></g><g class="entity" data-qualified-name="LISTEN" id="ent0003"><rect fill="#F1F1F1" height="50" rx="12.5" ry="12.5" style="stroke:#181818;stroke-width:0.5;" width="65.8213" x="162.14" y="87"/><line style="stroke:#181818;stroke-width:0.5;" x1="162.14" x2="227.9613" y1="113.4883" y2="113.4883"/><text fill="#000000" font-family="sans-serif" font-size="14" lengthAdjust="spacing" textLength="45.8213" x="172.14" y="105.5352">LISTEN</text></g><g class="entity" data-qualified-name="SYN_RECEIVED" id="ent0005"><rect fill="#F1F1F1" height="50" rx="12.5" ry="12.5" style="stroke:#181818;stroke-width:0.5;" width="118.5811" x="135.76" y="214"/><line style="stroke:#181818;stroke-width:0.5;" x1="135.76" x2="254.3411" y1="240.4883" y2="240.4883"/><text fill="#000000" font-family="sans-serif" font-size="14" lengthAdjust="spacing" textLength="98.5811" x="145.76" y="232.5352">SYN_RECEIVED</text></g><g class="entity" data-qualified-name="ESTABLISHED" id="ent0007"><rect fill="#F1F1F1" height="50" rx="12.5" ry="12.5" style="stroke:#181818;stroke-width:0.5;" width="109.0928" x="140.51" y="341"/><line style="stroke:#181818;stroke-width:0.5;" x1="140.51" x2="249.6028" y1="367.4883" y2="367.4883"/><text fill="#000000" font-family="sans-serif" font-size="14" lengthAdjust="spacing" textLength="89.0928" x="150.51" y="359.5352">ESTABLISHED</text></g><g class="entity" data-qualified-name="FIN_RECEIVED" id="ent0009"><rect fill="#F1F1F1" height="50" rx="12.5" ry="12.5" style="stroke:#181818;stroke-width:0.5;" width="113.8574" x="22.13" y="468"/><line style="stroke:#181818;stroke-width:0.5;" x1="22.13" x2="135.9874" y1="494.4883" y2="494.4883"/><text fill="#000000" font-family="sans-serif" font-size="14" lengthAdjust="spacing" textLength="93.8574" x="32.13" y="486.5352">FIN_RECEIVED</text></g><g class="entity" data-qualified-name="TIME_WAIT" id="ent0011"><rect fill="#F1F1F1" height="50" rx="12.5" ry="12.5" style="stroke:#181818;stroke-width:0.5;" width="94.0537" x="24.03" y="595"/><line style="stroke:#181818;stroke-width:0.5;" x1="24.03" x2="118.0837" y1="621.4883" y2="621.4883"/><text fill="#000000" font-family="sans-serif" font-size="14" lengthAdjust="spacing" textLength="74.0537" x="34.03" y="613.5352">TIME_WAIT</text></g><g class="end_entity" data-qualified-name=".end." data-source-line="6" id="ent0013"><ellipse cx="160.05" cy="733" fill="none" rx="11" ry="11" style="stroke:#222222;stroke-width:1;"/><ellipse cx="160.05" cy="733" fill="#222222" rx="6" ry="6" style="stroke:#222222;stroke-width:1;"/></g><!--link *start* to LISTEN--><g class="link" data-entity-1="ent0002" data-entity-2="ent0003" data-link-type="dependency" data-source-line="1" id="lnk4"><path d="M195.05,26.36 C195.05,40.29 195.05,60.95 195.05,80.65" fill="none" id="*start*-to-LISTEN" style="stroke:#181818;stroke-width:1;"/><polygon fill="#181818" points="195.05,86.65,199.05,77.65,195.05,81.65,191.05,77.65,195.05,86.65" style="stroke:#181818;stroke-width:1;"/></g><!--link LISTEN to SYN_RECEIVED--><g class="link" data-entity-1="ent0003" data-entity-2="ent0005" data-link-type="dependency" data-source-line="2" id="lnk6"><path d="M195.05,137.4 C195.05,159.42 195.05,185.66 195.05,207.66" fill="none" id="LISTEN-to-SYN_RECEIVED" style="stroke:#181818;stroke-width:1;"/><polygon fill="#181818" points="195.05,213.66,199.05,204.66,195.05,208.66,191.05,204.66,195.05,213.66" style="stroke:#181818;stroke-width:1;"/><text fill="#000000" font-family="sans-serif" font-size="13" lengthAdjust="spacing" textLength="63.7051" x="196.05" y="180.5684">p&#345;i&#353;el SYN</text></g><!--link SYN_RECEIVED to ESTABLISHED--><g class="link" data-entity-1="ent0005" data-entity-2="ent0007" data-link-type="dependency" data-source-line="3" id="lnk8"><path d="M195.05,264.4 C195.05,286.42 195.05,312.66 195.05,334.66" fill="none" id="SYN_RECEIVED-to-ESTABLISHED" style="stroke:#181818;stroke-width:1;"/><polygon fill="#181818" points="195.05,340.66,199.05,331.66,195.05,335.66,191.05,331.66,195.05,340.66" style="stroke:#181818;stroke-width:1;"/><text fill="#000000" font-family="sans-serif" font-size="13" lengthAdjust="spacing" textLength="224.9102" x="196.05" y="307.5684">p&#345;i&#353;el ACK (nebo rovnou DATA/FIN)</text></g><!--link ESTABLISHED to FIN_RECEIVED--><g class="link" data-entity-1="ent0007" data-entity-2="ent0009" data-link-type="dependency" data-source-line="4" id="lnk10"><path d="M172.41,391.4 C151.97,413.42 126.1418,441.2624 105.7218,463.2624" fill="none" id="ESTABLISHED-to-FIN_RECEIVED" style="stroke:#181818;stroke-width:1;"/><polygon fill="#181818" points="101.64,467.66,110.6944,463.7848,105.0415,463.9953,104.8309,458.3424,101.64,467.66" style="stroke:#181818;stroke-width:1;"/><text fill="#000000" font-family="sans-serif" font-size="13" lengthAdjust="spacing" textLength="59.3188" x="145" y="434.5684">p&#345;i&#353;el FIN</text></g><!--link FIN_RECEIVED to TIME_WAIT--><g class="link" data-entity-1="ent0009" data-entity-2="ent0011" data-link-type="dependency" data-source-line="5" id="lnk12"><path d="M38.56,518.42 C28.72,526.51 19.48,536.45 14.05,548 C6,565.17 13.4613,577.949 28.5013,590.819" fill="none" id="FIN_RECEIVED-to-TIME_WAIT" style="stroke:#181818;stroke-width:1;"/><polygon fill="#181818" points="33.06,594.72,28.8225,585.8293,29.261,591.4692,23.6212,591.9077,33.06,594.72" style="stroke:#181818;stroke-width:1;"/><text fill="#000000" font-family="sans-serif" font-size="13" lengthAdjust="spacing" textLength="191.5342" x="15.05" y="561.5684">data zaps&#225;na, FINACK odesl&#225;n</text></g><!--link TIME_WAIT to *end*--><g class="link" data-entity-1="ent0011" data-entity-2="ent0013" data-link-type="dependency" data-source-line="6" id="lnk14"><path d="M87.27,645.28 C96.92,659.28 109.67,677.03 122.05,692 C131.95,703.95 140.2732,712.5817 148.1832,720.4017" fill="none" id="TIME_WAIT-to-*end*" style="stroke:#181818;stroke-width:1;"/><polygon fill="#181818" points="152.45,724.62,148.8619,715.448,148.8943,721.1048,143.2375,721.1371,152.45,724.62" style="stroke:#181818;stroke-width:1;"/><text fill="#000000" font-family="sans-serif" font-size="13" lengthAdjust="spacing" textLength="100.3057" x="123.05" y="688.5684">po 2 sekund&#225;ch</text></g><!--link ESTABLISHED to *end*--><g class="link" data-entity-1="ent0007" data-entity-2="ent0013" data-link-type="dependency" data-source-line="7" id="lnk15"><path d="M206.62,391.43 C231.77,448.41 284.79,592.8 228.05,692 C215.68,713.64 192.2914,723.0548 176.4714,727.6548" fill="none" id="ESTABLISHED-to-*end*" style="stroke:#181818;stroke-width:1;"/><polygon fill="#181818" points="170.71,729.33,180.4689,730.6581,175.5112,727.934,178.2352,722.9762,170.71,729.33" style="stroke:#181818;stroke-width:1;"/><text fill="#000000" font-family="sans-serif" font-size="13" lengthAdjust="spacing" textLength="48.915" x="253.49" y="561.5684">timeout</text></g><?plantuml-src YzQALT3LjLFmyGmESVNZWb1WaU18l_WWLsTNpp1N5mKhXOAZCpEFBapD0ObpeSY15Bi6XpWw0JLxeAfrTFPMqCXBJSfNACeloyilLN1n377KT_Fqq-H2rW4o0IY8rJgWE1UA74XnYAUlQtouesS8K6LAOacYGbLYGV7XXNc9EY3r85lpKrABSu0YN0Yb88tHGEy23SzNC58eJiqkpKivl30v0yCj45KbcRcf-QKb0000?></g></svg>